
<svg width="7" height="12" viewBox="0 0 7 12" fill="none" xmlns="http://www.w3.org/2000/svg">
    <path d="M1.53061 0.469372L6.53061 5.46937C6.60053 5.53905 6.65601 5.62184 6.69386 5.71301C6.73172 5.80417 6.7512 5.90191 6.7512 6.00062C6.7512 6.09933 6.73172 6.19707 6.69386 6.28824C6.65601 6.3794 6.60053 6.46219 6.53061 6.53187L1.53061 11.5319C1.38972 11.6728 1.19862 11.7519 0.999362 11.7519C0.800105 11.7519 0.609009 11.6728 0.468112 11.5319C0.327216 11.391 0.248062 11.1999 0.248062 11.0006C0.248062 10.8014 0.327216 10.6103 0.468112 10.4694L4.93749 6L0.467488 1.53062C0.326592 1.38973 0.247437 1.19863 0.247437 0.999372C0.247437 0.800115 0.326592 0.609018 0.467488 0.468122C0.608384 0.327227 0.799481 0.24807 0.998738 0.24807C1.198 0.24807 1.38909 0.327227 1.52999 0.468122L1.53061 0.469372Z" fill="black" fill-opacity="0.6"/>
</svg>