<svg width="14" height="11" viewBox="0 0 14 11" fill="none" xmlns="http://www.w3.org/2000/svg">
<path d="M13.5306 2.03063L5.53062 10.0306C5.46095 10.1005 5.37815 10.156 5.28699 10.1939C5.19582 10.2317 5.09808 10.2512 4.99937 10.2512C4.90066 10.2512 4.80292 10.2317 4.71176 10.1939C4.6206 10.156 4.5378 10.1005 4.46812 10.0306L0.968125 6.53063C0.89836 6.46087 0.843019 6.37804 0.805263 6.28689C0.767507 6.19574 0.748074 6.09804 0.748074 5.99938C0.748074 5.90072 0.767507 5.80302 0.805263 5.71187C0.843019 5.62072 0.89836 5.53789 0.968125 5.46813C1.03789 5.39837 1.12071 5.34302 1.21186 5.30527C1.30302 5.26751 1.40071 5.24808 1.49937 5.24808C1.59804 5.24808 1.69573 5.26751 1.78689 5.30527C1.87804 5.34302 1.96086 5.39837 2.03062 5.46813L5 8.4375L12.4694 0.969379C12.6103 0.828483 12.8014 0.749329 13.0006 0.749329C13.1999 0.749329 13.391 0.828483 13.5319 0.969379C13.6728 1.11028 13.7519 1.30137 13.7519 1.50063C13.7519 1.69989 13.6728 1.89098 13.5319 2.03188L13.5306 2.03063Z" fill="white"/>
</svg>
